# xmcd
#
# Track frame offsets: 
#        150
#        15150
#        36169
#        50194
#        65320
#        78560
#        92376
#        110406
#        125743
#        143105
#
# Disc length: 2243 seconds
#
# Revision: 0
# Processed by: cddbd v1.5.2PL0 Copyright (c) Steve Scherf et al.
# Submitted via: ExactAudioCopy v0.99pb3
#
DISCID=7f08c10a
DTITLE=Redneck 28 - Against the World [CD]
DYEAR=2015
DGENRE=Patriotic Ballads
TTITLE0=Against the World
TTITLE1=Sign of the Times
TTITLE2=Day of Reckoning
TTITLE3=Racist Crown
TTITLE4=Drummer Boy
TTITLE5=Fight for Freedom
TTITLE6=Rivers of Blood
TTITLE7=Follow Me
TTITLE8=In Valhalla
TTITLE9=My Country [Griffin guest vocals]
EXTD=
EXTT0=
EXTT1=
EXTT2=
EXTT3=
EXTT4=
EXTT5=
EXTT6=
EXTT7=
EXTT8=
EXTT9=
PLAYORDER=
